<?xml version="1.0" encoding="iso-8859-1"?>
<!-- Generator: Adobe Illustrator 19.0.0, SVG Export Plug-In . SVG Version: 6.00 Build 0)  -->
<svg version="1.1" id="Layer_1" xmlns="http://www.w3.org/2000/svg" xmlns:xlink="http://www.w3.org/1999/xlink" x="0px" y="0px"
	 viewBox="0 0 492.8 492.8" style="enable-background:new 0 0 492.8 492.8;" xml:space="preserve">
<circle style="fill:#EBFFF6;" cx="250.4" cy="246.4" r="242.4"/>
<path style="fill:#D6EAE0;" d="M0,246.4C0,380,108,488,242.4,488C376,488,484,380,484,246.4"/>
<path style="fill:#C42014;" d="M242.4,10.4c-130.4,0-236,105.6-236,236s105.6,236,236,236s236-105.6,236-236S372.8,10.4,242.4,10.4z
	 M242.4,360c-63.2,0-113.6-51.2-113.6-113.6c0-63.2,51.2-113.6,113.6-113.6S356,183.2,356,246.4S305.6,360,242.4,360z"/>
<g>
	<path style="fill:#840202;" d="M250.4,10.4v122.4c56,2.4,105.6,52,105.6,113.6S306.4,357.6,250.4,360v122.4
		c128-2.4,228-105.6,228-234.4S378.4,12.8,250.4,10.4z"/>
	
		<rect x="200.701" y="110.883" transform="matrix(-0.7071 0.7072 -0.7072 -0.7071 588.3342 248.4627)" style="fill:#840202;" width="84.005" height="270.417"/>
</g>
<polygon style="fill:#C42014;" points="242.4,187.2 176.8,121.6 117.6,180.8 242.4,305.6 "/>
<g>
</g>
<g>
</g>
<g>
</g>
<g>
</g>
<g>
</g>
<g>
</g>
<g>
</g>
<g>
</g>
<g>
</g>
<g>
</g>
<g>
</g>
<g>
</g>
<g>
</g>
<g>
</g>
<g>
</g>
</svg>
