<?xml version="1.0" encoding="iso-8859-1"?>
<!-- Generator: Adobe Illustrator 19.0.0, SVG Export Plug-In . SVG Version: 6.00 Build 0)  -->
<svg version="1.1" id="Layer_1" xmlns="http://www.w3.org/2000/svg" xmlns:xlink="http://www.w3.org/1999/xlink" x="0px" y="0px"
	 viewBox="0 0 488.013 488.013" style="enable-background:new 0 0 488.013 488.013;" xml:space="preserve">
<polygon style="fill:#7BB2A9;" points="212.007,272.8 257.607,300 384.007,35.2 376.007,0 "/>
<g>
	<polyline style="fill:#66968F;" points="212.007,272.8 257.607,300 384.007,35.2 	"/>
	
		<rect x="201.945" y="246.208" transform="matrix(0.8568 0.5157 -0.5157 0.8568 181.3648 -67.8016)" style="fill:#66968F;" width="21.601" height="92.802"/>
</g>
<g>
	<path style="fill:#053A51;" d="M110.407,440.8c1.6,3.2,4,5.6,6.4,7.2c15.2,8.8,42.4-7.2,60-36.8c17.6-29.6,20-60.8,4.8-70.4
		c-3.2-1.6-6.4-2.4-9.6-2.4l13.6-21.6c9.6-2.4,17.6-1.6,24.8,2.4c23.2,14.4,20,62.4-7.2,108s-68.8,71.2-92,56.8
		c-7.2-4-11.2-11.2-13.6-20.8L110.407,440.8z"/>
	<path style="fill:#053A51;" d="M132.807,424.8c-1.6,2.4-4.8,3.2-7.2,1.6l0,0c-2.4-1.6-3.2-4.8-1.6-7.2l36-60
		c1.6-2.4,4.8-3.2,7.2-1.6l0,0c2.4,1.6,3.2,4.8,1.6,7.2L132.807,424.8z"/>
</g>
<polygon style="fill:#8EC1B7;" points="276.007,272.8 230.407,300 104.007,35.2 112.007,0 "/>
<g>
	<polyline style="fill:#7BB2A9;" points="112.007,0 276.007,272.8 230.407,300 	"/>
	
		<rect x="264.645" y="245.5" transform="matrix(-0.8566 0.516 -0.516 -0.8566 662.0078 399.8125)" style="fill:#7BB2A9;" width="21.6" height="92.801"/>
</g>
<g>
	<path style="fill:#053A51;" d="M377.607,440.8c-1.6,3.2-4,5.6-6.4,7.2c-15.2,8.8-42.4-7.2-60-36.8c-17.6-29.6-20-60.8-4.8-70.4
		c3.2-1.6,6.4-2.4,9.6-2.4l-13.6-21.6c-9.6-2.4-17.6-1.6-24.8,2.4c-23.2,14.4-20,62.4,7.2,108s68.8,71.2,92,56.8
		c7.2-4,11.2-11.2,13.6-20.8L377.607,440.8z"/>
	<path style="fill:#053A51;" d="M355.207,424.8c1.6,2.4,4.8,3.2,7.2,1.6l0,0c2.4-1.6,3.2-4.8,1.6-7.2l-36-60
		c-1.6-2.4-4.8-3.2-7.2-1.6l0,0c-2.4,1.6-3.2,4.8-1.6,7.2L355.207,424.8z"/>
</g>
<g>
</g>
<g>
</g>
<g>
</g>
<g>
</g>
<g>
</g>
<g>
</g>
<g>
</g>
<g>
</g>
<g>
</g>
<g>
</g>
<g>
</g>
<g>
</g>
<g>
</g>
<g>
</g>
<g>
</g>
</svg>
