<?xml version="1.0" encoding="iso-8859-1"?>
<!-- Generator: Adobe Illustrator 19.0.0, SVG Export Plug-In . SVG Version: 6.00 Build 0)  -->
<svg version="1.1" id="Layer_1" xmlns="http://www.w3.org/2000/svg" xmlns:xlink="http://www.w3.org/1999/xlink" x="0px" y="0px"
	 viewBox="0 0 484.8 484.8" style="enable-background:new 0 0 484.8 484.8;" xml:space="preserve">
<circle style="fill:#CDE0D4;" cx="242.4" cy="242.4" r="242.4"/>
<path style="fill:#ABC4B5;" d="M0,242.4C0,376,108,484,242.4,484C376,484,484,376,484,242.4"/>
<polygon style="fill:#C42014;" points="346.4,260 346.4,285.6 330.4,300.8 330.4,282.4 330.4,282.4 330.4,82.4 282.4,82.4 
	282.4,210.4 274.4,210.4 274.4,58.4 226.4,58.4 226.4,210.4 218.4,210.4 218.4,66.4 170.4,66.4 170.4,210.4 162.4,210.4 
	162.4,114.4 122.4,114.4 122.4,282.4 122.4,282.4 122.4,354.4 122.4,354.4 173.6,418.4 301.6,418.4 378.4,335.2 378.4,239.2 "/>
<polygon style="fill:#840202;" points="346.4,260 346.4,285.6 330.4,300.8 330.4,282.4 330.4,282.4 330.4,82.4 282.4,82.4 
	282.4,210.4 274.4,210.4 274.4,58.4 226.4,58.4 226.4,210.4 226.4,210.4 226.4,418.4 301.6,418.4 378.4,335.2 378.4,239.2 "/>
<g>
</g>
<g>
</g>
<g>
</g>
<g>
</g>
<g>
</g>
<g>
</g>
<g>
</g>
<g>
</g>
<g>
</g>
<g>
</g>
<g>
</g>
<g>
</g>
<g>
</g>
<g>
</g>
<g>
</g>
</svg>
