<?xml version="1.0" encoding="iso-8859-1"?>
<!-- Generator: Adobe Illustrator 19.0.0, SVG Export Plug-In . SVG Version: 6.00 Build 0)  -->
<svg version="1.1" id="Layer_1" xmlns="http://www.w3.org/2000/svg" xmlns:xlink="http://www.w3.org/1999/xlink" x="0px" y="0px"
	 viewBox="0 0 496 496" style="enable-background:new 0 0 496 496;" xml:space="preserve">
<rect x="80" y="128" style="fill:#1EA4C4;" width="336" height="64"/>
<polyline style="fill:#0B85B5;" points="416,128 416,192 80,192 "/>
<path style="fill:#004E70;" d="M496,392.8c0,44-38.4,55.2-82.4,55.2H82.4C38.4,448,0,436.8,0,392.8V254.4C0,209.6,38.4,176,82.4,176
	h330.4c44,0,82.4,33.6,82.4,78.4v138.4H496z"/>
<path style="fill:#102D35;" d="M496,256v136.8c0,44-38.4,55.2-82.4,55.2H82.4C38.4,448,0,436.8,0,392.8V256"/>
<path style="fill:#0DD396;" d="M98.4,308.8c0,15.2-12,27.2-27.2,27.2S44,324,44,308.8s12-27.2,27.2-27.2
	C86.4,281.6,98.4,294.4,98.4,308.8z"/>
<path style="fill:#23C181;" d="M91.2,289.6c10.4,10.4,10.4,28,0,38.4s-27.2,10.4-38.4,0"/>
<g>
	<path style="fill:#1EA4C4;" d="M440,236c0,4-3.2,4-6.4,4H62.4c-3.2,0-6.4,0-6.4-4l0,0c0-4,3.2-4,6.4-4h370.4
		C436.8,232,440,232,440,236L440,236z"/>
	<rect x="80" y="392" style="fill:#1EA4C4;" width="336" height="72"/>
</g>
<polyline style="fill:#0B85B5;" points="80,392 416,392 416,464 "/>
<g>
	<rect x="96" y="392" style="fill:#FFFFFF;" width="304" height="88"/>
	<rect x="96" y="16" style="fill:#FFFFFF;" width="304" height="168"/>
</g>
<g>
	<polyline style="fill:#C8D2D6;" points="400,16 400,184 96,184 	"/>
	<rect x="96" y="392" style="fill:#C8D2D6;" width="304" height="32"/>
</g>
<g>
</g>
<g>
</g>
<g>
</g>
<g>
</g>
<g>
</g>
<g>
</g>
<g>
</g>
<g>
</g>
<g>
</g>
<g>
</g>
<g>
</g>
<g>
</g>
<g>
</g>
<g>
</g>
<g>
</g>
</svg>
