<?xml version="1.0" encoding="iso-8859-1"?>
<!-- Generator: Adobe Illustrator 19.0.0, SVG Export Plug-In . SVG Version: 6.00 Build 0)  -->
<svg version="1.1" id="Layer_1" xmlns="http://www.w3.org/2000/svg" xmlns:xlink="http://www.w3.org/1999/xlink" x="0px" y="0px"
	 viewBox="0 0 496 496" style="enable-background:new 0 0 496 496;" xml:space="preserve">
<rect x="80" y="40" style="fill:#EFA91B;" width="336" height="72"/>
<polyline style="fill:#D38C0D;" points="416,40 416,112 80,112 "/>
<path style="fill:#C42014;" d="M496,305.6c0,44-38.4,54.4-82.4,54.4H82.4C38.4,360,0,349.6,0,305.6V167.2C0,123.2,38.4,88,82.4,88
	h330.4c44,0,82.4,35.2,82.4,79.2v138.4H496z"/>
<path style="fill:#840202;" d="M496,168v137.6c0,44-38.4,54.4-82.4,54.4H82.4C38.4,360,0,349.6,0,305.6V168"/>
<path style="fill:#0DD396;" d="M98.4,221.6c0,15.2-12,27.2-27.2,27.2S44,236.8,44,221.6s12-27.2,27.2-27.2
	C86.4,195.2,98.4,207.2,98.4,221.6z"/>
<path style="fill:#23C181;" d="M91.2,202.4c10.4,10.4,10.4,28,0,38.4s-27.2,10.4-38.4,0"/>
<g>
	<path style="fill:#EFA91B;" d="M440,152c0,4-3.2,8-6.4,8H62.4c-3.2,0-6.4-4-6.4-8l0,0c0-4,3.2-8,6.4-8h370.4
		C436.8,144,440,148,440,152L440,152z"/>
	<rect x="80" y="312" style="fill:#EFA91B;" width="336" height="64"/>
</g>
<polyline style="fill:#D38C0D;" points="80,312 416,312 416,376 "/>
<rect x="96" y="312" style="fill:#FFFFFF;" width="304" height="168"/>
<polyline style="fill:#C8D2D6;" points="400,480 400,312 96,312 "/>
<rect x="96" y="16" style="fill:#FFFFFF;" width="304" height="88"/>
<rect x="96" y="72" style="fill:#C8D2D6;" width="304" height="32"/>
<g>
	<path style="fill:#7E9196;" d="M365.6,356c0,2.4-3.2,4-8,4H138.4c-4.8,0-8-1.6-8-4l0,0c0-2.4,3.2-4,8-4h218.4
		C361.6,352,365.6,353.6,365.6,356L365.6,356z"/>
	<path style="fill:#7E9196;" d="M365.6,388c0,2.4-3.2,4-8,4H138.4c-4.8,0-8-1.6-8-4l0,0c0-2.4,3.2-4,8-4h218.4
		C361.6,384,365.6,385.6,365.6,388L365.6,388z"/>
	<path style="fill:#7E9196;" d="M365.6,324c0,2.4-3.2,4-8,4H138.4c-4.8,0-8-1.6-8-4l0,0c0-2.4,3.2-4,8-4h218.4
		C361.6,320,365.6,321.6,365.6,324L365.6,324z"/>
	<path style="fill:#7E9196;" d="M365.6,420c0,2.4-3.2,4-8,4H138.4c-4.8,0-8-1.6-8-4l0,0c0-2.4,3.2-4,8-4h218.4
		C361.6,416,365.6,417.6,365.6,420L365.6,420z"/>
</g>
<g>
</g>
<g>
</g>
<g>
</g>
<g>
</g>
<g>
</g>
<g>
</g>
<g>
</g>
<g>
</g>
<g>
</g>
<g>
</g>
<g>
</g>
<g>
</g>
<g>
</g>
<g>
</g>
<g>
</g>
</svg>
