<?xml version="1.0" encoding="iso-8859-1"?>
<!-- Generator: Adobe Illustrator 19.0.0, SVG Export Plug-In . SVG Version: 6.00 Build 0)  -->
<svg version="1.1" id="Layer_1" xmlns="http://www.w3.org/2000/svg" xmlns:xlink="http://www.w3.org/1999/xlink" x="0px" y="0px"
	 viewBox="0 0 484.8 484.8" style="enable-background:new 0 0 484.8 484.8;" xml:space="preserve">
<circle style="fill:#149FDD;" cx="242.4" cy="242.4" r="242.4"/>
<path style="fill:#0E75AF;" d="M0,242.4C0,376,108,484,242.4,484C376,484,484,376,484,242.4"/>
<polygon style="fill:#EBFFF6;" points="322.4,242.4 250.4,170.4 250.4,78.4 414.4,242.4 250.4,406.4 250.4,314.4 "/>
<polyline style="fill:#D6EAE0;" points="414.4,242.4 250.4,406.4 250.4,314.4 322.4,242.4 250.4,170.4 "/>
<polygon style="fill:#EBFFF6;" points="186.4,137.6 186.4,204 224,242.4 257.6,209.6 "/>
<polygon style="fill:#D6EAE0;" points="186.4,280.8 186.4,347.2 256.8,275.2 224.8,242.4 "/>
<polygon style="fill:#EBFFF6;" points="106.4,137.6 106.4,204 144,242.4 177.6,209.6 "/>
<polygon style="fill:#D6EAE0;" points="106.4,280.8 106.4,347.2 176.8,275.2 144.8,242.4 "/>
<g>
</g>
<g>
</g>
<g>
</g>
<g>
</g>
<g>
</g>
<g>
</g>
<g>
</g>
<g>
</g>
<g>
</g>
<g>
</g>
<g>
</g>
<g>
</g>
<g>
</g>
<g>
</g>
<g>
</g>
</svg>
