<?xml version="1.0" encoding="iso-8859-1"?>
<!-- Generator: Adobe Illustrator 19.0.0, SVG Export Plug-In . SVG Version: 6.00 Build 0)  -->
<svg version="1.1" id="Layer_1" xmlns="http://www.w3.org/2000/svg" xmlns:xlink="http://www.w3.org/1999/xlink" x="0px" y="0px"
	 viewBox="0 0 496 496" style="enable-background:new 0 0 496 496;" xml:space="preserve">
<rect x="16" style="fill:#6799A5;" width="464" height="56"/>
<polyline style="fill:#4D838C;" points="16,0 480,0 480,56 "/>
<rect x="112" y="440" style="fill:#6799A5;" width="272" height="56"/>
<polyline style="fill:#4D838C;" points="112,440 384,440 384,496 "/>
<path style="fill:#5FC1E0;" d="M364,396c-8.8,0-16-7.2-16-16s7.2-16,16-16c4.8,0,9.6,2.4,12.8,6.4l8-31.2c-2.4-3.2-4-6.4-4-10.4
	c0-7.2,4.8-12.8,10.4-15.2L424,183.2c-5.6-2.4-10.4-8-10.4-15.2c0-8.8,7.2-16,16-16c0.8,0,1.6-1.6,1.6-1.6L450.4,72H44.8l8,33.6
	c3.2-4,8-6.4,13.6-6.4c8.8,0,16,8,16,16.8s-7.2,16-16,16c-2.4,0-5.6-0.8-7.2-1.6l20.8,84c1.6,2.4,2.4,4.8,2.4,8c0,0,0,0,0,0.8
	l9.6,37.6c2.4-1.6,4.8-2.4,8-2.4c8.8,0,16,7.2,16,16s-7.2,16-16,16c0,0,0,1.6-0.8,1.6l33.6,132H364l6.4-27.2
	C368,397.6,366.4,396,364,396z M396,100c8.8,0,16,7.2,16,16s-7.2,16-16,16s-16-7.2-16-16S387.2,100,396,100z M396,206.4
	c8.8,0,16,7.2,16,16s-7.2,16-16,16s-16-7.2-16-16C380,212.8,387.2,206.4,396,206.4z M364,152c8.8,0,16,7.2,16,16s-7.2,16-16,16
	s-16-7.2-16-16S355.2,152,364,152z M364,257.6c8.8,0,16,7.2,16,16s-7.2,16-16,16s-16-7.2-16-16C348,264.8,355.2,257.6,364,257.6z
	 M100,184c-8.8,0-16-7.2-16-16s7.2-16,16-16s16,7.2,16,16S108.8,184,100,184z M132,344c-8.8,0-16-7.2-16-16s7.2-16,16-16
	s16,7.2,16,16S140.8,344,132,344z M132,238.4c-8.8,0-16-7.2-16-16s7.2-16,16-16s16,7.2,16,16S140.8,238.4,132,238.4z M132,132
	c-8.8,0-16-7.2-16-16s7.2-16,16-16s16,7.2,16,16S140.8,132,132,132z M165.6,396c-8.8,0-16-7.2-16-16s7.2-16,16-16s16,7.2,16,16
	S174.4,396,165.6,396z M165.6,289.6c-8.8,0-16-7.2-16-16s7.2-16,16-16s16,7.2,16,16C181.6,283.2,174.4,289.6,165.6,289.6z
	 M165.6,184c-8.8,0-16-7.2-16-16s7.2-16,16-16s16,7.2,16,16S174.4,184,165.6,184z M198.4,344c-8.8,0-16-7.2-16-16s7.2-16,16-16
	s16,7.2,16,16S207.2,344,198.4,344z M198.4,238.4c-8.8,0-16-7.2-16-16s7.2-16,16-16s16,7.2,16,16S207.2,238.4,198.4,238.4z
	 M198.4,132c-8.8,0-16-7.2-16-16s7.2-16,16-16s16,7.2,16,16S207.2,132,198.4,132z M232,396c-8.8,0-16-7.2-16-16s7.2-16,16-16
	s16,7.2,16,16S240.8,396,232,396z M232,289.6c-8.8,0-16-7.2-16-16s7.2-16,16-16s16,7.2,16,16C248,283.2,240.8,289.6,232,289.6z
	 M232,184c-8.8,0-16-7.2-16-16s7.2-16,16-16s16,7.2,16,16S240.8,184,232,184z M264,344c-8.8,0-16-7.2-16-16s7.2-16,16-16
	s16,7.2,16,16S272.8,344,264,344z M264,238.4c-8.8,0-16-7.2-16-16s7.2-16,16-16s16,7.2,16,16S272.8,238.4,264,238.4z M264,132
	c-8.8,0-16-7.2-16-16s7.2-16,16-16s16,7.2,16,16S272.8,132,264,132z M297.6,396c-8.8,0-16-7.2-16-16s7.2-16,16-16s16,7.2,16,16
	S306.4,396,297.6,396z M297.6,289.6c-8.8,0-16-7.2-16-16s7.2-16,16-16s16,7.2,16,16C313.6,283.2,306.4,289.6,297.6,289.6z
	 M297.6,184c-8.8,0-16-7.2-16-16s7.2-16,16-16s16,7.2,16,16S306.4,184,297.6,184z M330.4,344c-8.8,0-16-7.2-16-16s7.2-16,16-16
	s16,7.2,16,16S339.2,344,330.4,344z M330.4,238.4c-8.8,0-16-7.2-16-16s7.2-16,16-16s16,7.2,16,16S339.2,238.4,330.4,238.4z
	 M330.4,132c-8.8,0-16-7.2-16-16s7.2-16,16-16s16,7.2,16,16S339.2,132,330.4,132z"/>
<path style="fill:#4298BA;" d="M192,72v28.8c0,0,4-0.8,5.6-0.8c8.8,0,16.8,7.2,16.8,16s-8,16-16.8,16c-1.6,0-4.8,0-4.8-0.8v75.2
	c0,0,4-0.8,5.6-0.8c8.8,0,16.8,7.2,16.8,16s-8,16-16.8,16c-1.6,0-4.8,0-4.8-0.8V312c0,0,4-0.8,5.6-0.8c8.8,0,16.8,7.2,16.8,16
	s-8,16-16.8,16c-1.6,0-4.8,0-4.8-0.8V424h171.2l6.4-27.2c-1.6,0.8-4,0-6.4,0c-8.8,0-16-8-16-16.8s7.2-16,16-16
	c4.8,0,9.6,2.4,12.8,5.6l8-31.2c-2.4-3.2-4-6.4-4-10.4c0-7.2,4.8-12.8,10.4-15.2L424,183.2c-5.6-2.4-10.4-8-10.4-15.2
	c0-8.8,7.2-16,16-16c0.8,0,1.6-1.6,1.6-1.6L450.4,72C450.4,72,192,72,192,72z M232,396c-8.8,0-16-7.2-16-16s7.2-16,16-16
	s16,7.2,16,16S240.8,396,232,396z M232,289.6c-8.8,0-16-7.2-16-16s7.2-16,16-16s16,7.2,16,16C248,283.2,240.8,289.6,232,289.6z
	 M232,184c-8.8,0-16-7.2-16-16s7.2-16,16-16s16,7.2,16,16S240.8,184,232,184z M264,344c-8.8,0-16-7.2-16-16s7.2-16,16-16
	s16,7.2,16,16S272.8,344,264,344z M264,238.4c-8.8,0-16-7.2-16-16s7.2-16,16-16s16,7.2,16,16S272.8,238.4,264,238.4z M264,132
	c-8.8,0-16-7.2-16-16s7.2-16,16-16s16,7.2,16,16S272.8,132,264,132z M297.6,396c-8.8,0-16-7.2-16-16s7.2-16,16-16s16,7.2,16,16
	S306.4,396,297.6,396z M297.6,289.6c-8.8,0-16-7.2-16-16s7.2-16,16-16s16,7.2,16,16C313.6,283.2,306.4,289.6,297.6,289.6z
	 M297.6,184c-8.8,0-16-7.2-16-16s7.2-16,16-16s16,7.2,16,16S306.4,184,297.6,184z M330.4,344c-8.8,0-16-7.2-16-16s7.2-16,16-16
	s16,7.2,16,16S339.2,344,330.4,344z M330.4,238.4c-8.8,0-16-7.2-16-16s7.2-16,16-16s16,7.2,16,16S339.2,238.4,330.4,238.4z
	 M330.4,132c-8.8,0-16-7.2-16-16s7.2-16,16-16s16,7.2,16,16S339.2,132,330.4,132z M364,289.6c-8.8,0-16-7.2-16-16s7.2-16,16-16
	s16,7.2,16,16C380,283.2,372.8,289.6,364,289.6z M364,184c-8.8,0-16-7.2-16-16s7.2-16,16-16s16,7.2,16,16S372.8,184,364,184z
	 M396,238.4c-8.8,0-16-7.2-16-16s7.2-16,16-16s16,7.2,16,16S404.8,238.4,396,238.4z M396,132c-8.8,0-16-7.2-16-16s7.2-16,16-16
	s16,7.2,16,16S404.8,132,396,132z"/>
<g>
</g>
<g>
</g>
<g>
</g>
<g>
</g>
<g>
</g>
<g>
</g>
<g>
</g>
<g>
</g>
<g>
</g>
<g>
</g>
<g>
</g>
<g>
</g>
<g>
</g>
<g>
</g>
<g>
</g>
</svg>
