<?xml version="1.0" encoding="iso-8859-1"?>
<!-- Generator: Adobe Illustrator 19.0.0, SVG Export Plug-In . SVG Version: 6.00 Build 0)  -->
<svg version="1.1" id="Layer_1" xmlns="http://www.w3.org/2000/svg" xmlns:xlink="http://www.w3.org/1999/xlink" x="0px" y="0px"
	 viewBox="0 0 494.647 494.647" style="enable-background:new 0 0 494.647 494.647;" xml:space="preserve">
<path style="fill:#79B5BF;" d="M124.825,481.51c-24,24-75.2,11.2-99.2-12.8l0,0c-24-24-36.8-75.2-12.8-99.2l192.8-167.2
	c24-24,62.4-24,86.4,0l0,0c24,24,24,62.4,0,86.4L124.825,481.51z"/>
<path style="fill:#6799A5;" d="M292.025,202.31L292.025,202.31c24,24,24,62.4,0,86.4l-167.2,192.8c-24,24-75.2,11.2-99.2-12.8l0,0"
	/>
<path style="fill:#90CCD3;" d="M477.625,83.11l-95.2,95.2l-68-68l93.6-94.4c-57.6-28-128.8-18.4-176,29.6c-60,60-60,157.6,0,217.6
	s157.6,60,217.6,0C497.625,213.51,507.225,140.71,477.625,83.11z"/>
<path style="fill:#79B5BF;" d="M232.025,44.71c-60,60-60,157.6,0,217.6s157.6,60,217.6,0c48.8-48.8,57.6-121.6,28-179.2l-95.2,95.2
	l-68-68l93.6-94.4"/>
<path style="fill:#6799A5;" d="M232.025,262.31c60,60,157.6,60,217.6,0c48.8-48.8,57.6-121.6,28-179.2l-95.2,95.2l-68-68"/>
<g>
	<circle style="fill:#EAEAEA;" cx="86.425" cy="407.91" r="24.8"/>
	<circle style="fill:#EAEAEA;" cx="136.825" cy="357.51" r="7.2"/>
	<circle style="fill:#EAEAEA;" cx="162.425" cy="331.91" r="7.2"/>
</g>
<g>
</g>
<g>
</g>
<g>
</g>
<g>
</g>
<g>
</g>
<g>
</g>
<g>
</g>
<g>
</g>
<g>
</g>
<g>
</g>
<g>
</g>
<g>
</g>
<g>
</g>
<g>
</g>
<g>
</g>
</svg>
