<?xml version="1.0" encoding="iso-8859-1"?>
<!-- Generator: Adobe Illustrator 19.0.0, SVG Export Plug-In . SVG Version: 6.00 Build 0)  -->
<svg version="1.1" id="Layer_1" xmlns="http://www.w3.org/2000/svg" xmlns:xlink="http://www.w3.org/1999/xlink" x="0px" y="0px"
	 viewBox="0 0 446.8 446.8" style="enable-background:new 0 0 446.8 446.8;" xml:space="preserve">
<g>
	<path style="fill:#149FDD;" d="M56.4,56.1c-75.2,75.2-75.2,196.8,0,271.2s196.8,75.2,271.2,0c75.2-75.2,75.2-196.8,0-271.2
		C253.2-18.3,131.6-18.3,56.4,56.1z M290.8,290.5c-54.4,54.4-142.4,54.4-196.8,0S39.6,148.1,94,93.7s142.4-54.4,196.8,0
		S345.2,236.1,290.8,290.5z"/>
	<circle style="fill:#149FDD;" cx="363.6" cy="363.3" r="20"/>
</g>
<g>
	<path style="fill:#1D76BF;" d="M207.6,265.7c0,7.2-8.8,13.6-16,13.6l0,0c-7.2,0-16-5.6-16-13.6V118.5c0-7.2,8.8-13.6,16-13.6l0,0
		c7.2,0,16,5.6,16,13.6V265.7z"/>
	<path style="fill:#1D76BF;" d="M118.8,205.7c-7.2,0-13.6-8-13.6-15.2l0,0c0-7.2,5.6-15.2,13.6-15.2H266c7.2,0,13.6,8,13.6,15.2l0,0
		c0,7.2-5.6,14.4-13.6,14.4L118.8,205.7z"/>
</g>
<path style="fill:#149FDD;" d="M442,374.5c6.4,6.4,6.4,16,0,21.6l-45.6,45.6c-6.4,6.4-16,6.4-21.6,0l0,0c-6.4-6.4-6.4-16,0-21.6
	l45.6-45.6C426.8,368.9,436.4,368.9,442,374.5L442,374.5z"/>
<g>
	<path style="fill:#1D76BF;" d="M420.4,374.5L398,396.9l21.6,21.6l22.4-22.4c6.4-6.4,6.4-16,0-21.6
		C436.4,368.9,426.8,368.9,420.4,374.5z"/>
	<path style="fill:#1D76BF;" d="M349.2,348.9L349.2,348.9l28,28l0,0c8-8,8-20,0-28S357.2,341.7,349.2,348.9z"/>
	<path style="fill:#1D76BF;" d="M56.4,56.1L56.4,56.1L94,93.7l0,0c54.4-54.4,142.4-54.4,196.8,0s54.4,142.4,0,196.8l0,0l37.6,37.6
		l0,0c75.2-75.2,75.2-196.8,0-271.2C253.2-18.3,131.6-18.3,56.4,56.1z"/>
</g>
<g>
</g>
<g>
</g>
<g>
</g>
<g>
</g>
<g>
</g>
<g>
</g>
<g>
</g>
<g>
</g>
<g>
</g>
<g>
</g>
<g>
</g>
<g>
</g>
<g>
</g>
<g>
</g>
<g>
</g>
</svg>
